<?xml version="1.0" encoding="UTF-8"?>
<svg width="447px" height="604px" viewBox="0 0 447 604" version="1.1" xmlns="http://www.w3.org/2000/svg" xmlns:xlink="http://www.w3.org/1999/xlink">
    <!-- Generator: Sketch 41.2 (35397) - http://www.bohemiancoding.com/sketch -->
    <title>Group 2</title>
    <desc>Created with Sketch.</desc>
    <defs></defs>
    <g id="Page-1" stroke="none" stroke-width="1" fill="none" fill-rule="evenodd">
        <g id="Desktop-HD-Copy-3" transform="translate(-127.000000, -1560.000000)" stroke="#FFFFFF" stroke-width="5">
            <g id="Group-2" transform="translate(130.000000, 1563.000000)">
                <path d="M200.334021,151.597906 C200.334021,151.597906 201.121693,102.679552 235.610006,102.679552 L260.248164,102.679552 L260.248164,7.46631595 C260.248164,7.46631595 273.463826,-9.33289494 284.592133,7.46631595" id="Path-3"></path>
                <path d="M344.899636,151.597906 C344.899636,151.597906 344.111964,102.679552 309.623651,102.679552 L284.985492,102.679552 L284.985492,7.46631595 C284.985492,7.46631595 271.76983,-9.33289494 260.641523,7.46631595" id="Path-3-Copy"></path>
                <path d="M200.642844,151.390613 L200.642844,195.145309 L344.678752,256.289461 C344.678752,256.289461 360.975493,258.164766 370.669328,254.12346 C372.712422,253.271705 376.843565,252.187531 375.704302,250.706785 C365.602104,237.576557 347.721321,220.083306 347.721321,198.69713 C347.721321,177.310954 345.763682,150.253281 345.763682,150.253281" id="Path-4"></path>
                <path d="M200.997938,151.098201 L345.072955,151.098201" id="Path-5"></path>
                <path d="M200.997938,165.045727 L345.072955,165.045727" id="Path-5-Copy"></path>
                <path d="M224.56701,203.380772 L224.56701,182.241652" id="Path-6" stroke-linecap="round"></path>
                <path d="M275.68866,224.901262 L275.68866,194.406526" id="Path-7" stroke-linecap="round"></path>
                <path d="M282.071965,227.850636 C282.071965,227.850636 292.658609,211.414285 308.271712,216.560491 C323.884816,221.706697 322.318159,238.17045 332.475623,229.730412 C342.633088,221.290373 357.326148,226.162199 357.326148,226.162199 L376.642439,251.348773 C376.642439,251.348773 350.103013,257.826324 341.289318,254.587548 C332.475623,251.348773 282.071965,227.850636 282.071965,227.850636 Z" id="Path-8" stroke-linecap="round" fill="#FFFFFF"></path>
                <path d="M338.361355,254.772376 C338.361355,254.772376 375.416308,282.210553 324.431673,301.356749 C273.447038,320.502945 220.525701,323.626469 177.128838,363.044738 C133.731974,402.463007 0.629062242,601.301815 0.629062242,601.301815 L426.701467,601.301815 C426.701467,601.301815 317.74288,389.35217 367.298543,371.604659 C389.464391,363.666341 427.537908,352.867045 437.968999,338.954591 C448.400091,325.042137 432.921974,301.421149 426.701467,295.013017 C415.44687,283.418953 374.585855,248.933587 374.585855,248.933587 C374.585855,248.933587 372.025661,254.010443 367.298543,254.772376 C362.571424,255.534309 338.361355,254.772376 338.361355,254.772376 Z" id="Path-9" stroke-linecap="round" fill="#FFFFFF"></path>
            </g>
        </g>
    </g>
</svg>