<?xml version="1.0" encoding="utf-8"?>
<!-- Generator: Adobe Illustrator 21.0.2, SVG Export Plug-In . SVG Version: 6.00 Build 0)  -->
<svg version="1.1" id="Layer_1" xmlns="http://www.w3.org/2000/svg" xmlns:xlink="http://www.w3.org/1999/xlink" x="0px" y="0px"
	 viewBox="0 0 48.4 31.5" style="enable-background:new 0 0 48.4 31.5;" xml:space="preserve">
<style type="text/css">
	.st0{fill:#FFFFFF;}
</style>
<g>
	<path class="st0" d="M14.8,28.4c-3.1,0-6-1.3-8.1-3.6v0c-4.3-4.7-7.6-15.6-3-20.5C5.2,2.7,7.3,1.9,10,1.9c0,0,0,0,0,0
		c4.5,0,9.9,2.4,13,5.6c4.4,4.8,4.4,12.5,0,17.3C20.8,27.1,17.9,28.4,14.8,28.4z"/>
</g>
<g>
	<path class="st0" d="M25.9,29.1c-0.3,0-0.5-0.1-0.7-0.3l-3.7-4c-0.4-0.4-0.4-1,0-1.4c0.4-0.4,1-0.4,1.4,0.1l3.7,4
		c0.4,0.4,0.4,1,0,1.4C26.4,29,26.2,29.1,25.9,29.1z"/>
</g>
<g>
	<path class="st0" d="M36.1,23.1c-2.2,0-4.5-0.8-6.2-2.4c-1.7-1.6-2.6-3.6-2.6-5.9s0.9-4.3,2.6-5.9C33.2,6,41,3.7,44.5,7
		c1.2,1.1,1.8,2.7,1.8,4.6c0,3.2-1.7,7-4,9.2C40.6,22.4,38.3,23.1,36.1,23.1z"/>
</g>
<g>
	<line class="st0" x1="30.6" y1="20" x2="27.8" y2="22.6"/>
</g>
<g>
	<path class="st0" d="M27.8,23.6c-0.3,0-0.5-0.1-0.7-0.3c-0.4-0.4-0.4-1,0-1.4l2.7-2.6c0.4-0.4,1-0.4,1.4,0.1c0.4,0.4,0.4,1,0,1.4
		l-2.7,2.6C28.3,23.5,28.1,23.6,27.8,23.6z"/>
</g>
</svg>
