<?xml version="1.0" encoding="utf-8"?>
<!-- Generator: Adobe Illustrator 21.0.2, SVG Export Plug-In . SVG Version: 6.00 Build 0)  -->
<svg version="1.1" id="Layer_1" xmlns="http://www.w3.org/2000/svg" xmlns:xlink="http://www.w3.org/1999/xlink" x="0px" y="0px"
	 viewBox="0 0 146 85" style="enable-background:new 0 0 146 85;" xml:space="preserve">
<style type="text/css">
	.st0{fill:#00E676;}
	.st1{display:none;}
	.st2{display:inline;fill:#00E676;}
	.st3{display:inline;fill:#B5F4D3;}
	.st4{display:inline;fill:none;}
	.st5{fill:#B5F4D3;}
</style>
<g>
	<path class="st0" d="M23.8,25.1c-0.3,0.3-0.8,0.5-1.3,0.5H7.4c0.3,1.9,1.1,3.4,2.5,4.5c1.4,1.1,3.1,1.7,5.1,1.7
		c0.8,0,1.6-0.1,2.5-0.4c0.9-0.3,1.6-0.6,2.1-1.1c0.4-0.3,0.8-0.4,1.3-0.4c0.5,0,0.9,0.1,1.2,0.4c0.5,0.4,0.7,0.8,0.7,1.4
		c0,0.5-0.2,0.9-0.6,1.2c-0.9,0.7-2,1.3-3.4,1.8c-1.3,0.5-2.6,0.7-3.8,0.7c-2.2,0-4.1-0.5-5.9-1.4c-1.7-0.9-3.1-2.2-4-3.9
		c-1-1.7-1.5-3.6-1.5-5.7c0-2.1,0.5-4,1.4-5.7c0.9-1.7,2.2-3,3.8-3.9c1.6-0.9,3.5-1.4,5.6-1.4c2,0,3.8,0.5,5.3,1.4
		c1.5,0.9,2.6,2.2,3.4,3.8c0.8,1.6,1.2,3.5,1.2,5.6C24.3,24.4,24.1,24.8,23.8,25.1z M9.7,18.2c-1.2,1.1-2,2.5-2.3,4.3h13.3
		c-0.2-1.8-0.9-3.2-2-4.3c-1.1-1.1-2.5-1.6-4.3-1.6C12.5,16.6,10.9,17.1,9.7,18.2z"/>
	<path class="st0" d="M33,33.8c-1.7-1-3-2.3-3.9-4c-0.9-1.7-1.4-3.6-1.4-5.6c0-2.1,0.5-4,1.4-5.7c0.9-1.7,2.2-3,3.8-3.9
		c1.6-0.9,3.5-1.4,5.6-1.4c3.1,0,5.7,1.2,7.8,3.6c0.3,0.3,0.4,0.6,0.4,1c0,0.6-0.3,1.1-0.9,1.5c-0.3,0.2-0.6,0.3-0.9,0.3
		c-0.6,0-1.1-0.2-1.6-0.7c-0.7-0.7-1.4-1.2-2.2-1.6c-0.8-0.3-1.7-0.5-2.7-0.5c-2,0-3.7,0.7-5,2c-1.3,1.4-1.9,3.2-1.9,5.4
		c0,1.4,0.3,2.7,0.9,3.8c0.6,1.1,1.4,2,2.5,2.6s2.3,1,3.7,1c1.8,0,3.3-0.5,4.4-1.4c0.5-0.4,1-0.6,1.5-0.6c0.4,0,0.7,0.1,1,0.4
		c0.5,0.4,0.8,0.9,0.8,1.4c0,0.4-0.2,0.8-0.5,1.1c-1.9,1.8-4.3,2.7-7.2,2.7C36.5,35.3,34.6,34.8,33,33.8z"/>
	<path class="st0" d="M56.8,33.9c-1.7-0.9-3-2.2-3.9-3.9c-0.9-1.7-1.4-3.6-1.4-5.7c0-2.1,0.5-4.1,1.4-5.7c0.9-1.7,2.2-3,3.9-3.9
		c1.7-0.9,3.6-1.4,5.7-1.4c2.1,0,4,0.5,5.6,1.4c1.7,0.9,3,2.2,3.9,3.9c0.9,1.7,1.4,3.6,1.4,5.7c0,2.1-0.5,4-1.4,5.7
		c-0.9,1.7-2.2,3-3.9,3.9c-1.7,0.9-3.5,1.4-5.7,1.4C60.4,35.3,58.5,34.8,56.8,33.9z M66.2,30.7c1.1-0.6,1.9-1.5,2.5-2.6
		c0.6-1.1,0.9-2.4,0.9-3.8c0-1.4-0.3-2.7-0.9-3.9c-0.6-1.1-1.4-2-2.5-2.7s-2.3-1-3.6-1c-1.4,0-2.6,0.3-3.6,1
		c-1.1,0.6-1.9,1.5-2.5,2.7c-0.6,1.1-0.9,2.4-0.9,3.9c0,1.4,0.3,2.7,0.9,3.8c0.6,1.1,1.5,2,2.5,2.6c1.1,0.6,2.3,1,3.6,1
		C63.9,31.7,65.1,31.4,66.2,30.7z"/>
</g>
<g>
	<path class="st0" d="M14.6,48c2.1,0,4,0.5,5.6,1.4c1.7,0.9,3,2.2,3.9,3.9c0.9,1.7,1.4,3.6,1.4,5.7v8.6c0,2.1-0.5,4-1.4,5.7
		c-0.9,1.7-2.2,3.1-3.9,4.1c-1.7,1-3.6,1.5-5.7,1.5c-1.9,0-3.7-0.4-5.3-1.1c-1.6-0.8-3-1.8-4.1-3.2c-0.3-0.4-0.4-0.7-0.4-1.1
		c0-0.6,0.3-1,0.8-1.4c0.4-0.2,0.7-0.4,1.1-0.4c0.7,0,1.2,0.3,1.6,0.8c0.7,0.9,1.6,1.6,2.7,2.1c1.1,0.5,2.3,0.7,3.7,0.7
		c1.3,0,2.5-0.3,3.5-0.9c1.1-0.6,1.9-1.5,2.5-2.7c0.6-1.2,1-2.6,1-4.3v-2c-0.8,1.5-1.9,2.6-3.3,3.4c-1.4,0.8-2.9,1.2-4.6,1.2
		c-2,0-3.7-0.5-5.3-1.4C7,67.7,5.8,66.4,5,64.8c-0.9-1.7-1.3-3.6-1.3-5.7c0-2.1,0.5-4.1,1.4-5.7c0.9-1.7,2.2-3,3.9-3.9
		C10.6,48.5,12.5,48,14.6,48L14.6,48z M14.6,66.5c1.4,0,2.6-0.3,3.6-1c1.1-0.6,1.9-1.5,2.5-2.6c0.6-1.1,0.9-2.4,0.9-3.8
		c0-1.4-0.3-2.7-0.9-3.9c-0.6-1.1-1.4-2-2.5-2.7c-1.1-0.6-2.3-1-3.6-1s-2.6,0.3-3.6,1c-1.1,0.6-1.9,1.5-2.5,2.7
		c-0.6,1.1-0.9,2.4-0.9,3.9c0,1.4,0.3,2.7,0.9,3.8c0.6,1.1,1.5,2,2.5,2.6C12.1,66.2,13.3,66.5,14.6,66.5L14.6,66.5z M42.3,47.9
		c1.4,0,2.5,0.2,3.3,0.6c0.8,0.4,1.2,1,1.2,1.6c0,0.2,0,0.3,0,0.4c-0.2,0.8-0.8,1.3-1.6,1.3c-0.1,0-0.3,0-0.6-0.1
		c-1.1-0.2-1.9-0.3-2.6-0.3c-1.9,0-3.4,0.4-4.6,1.3c-1.2,0.9-1.8,2.1-1.8,3.5v11.6c0,0.6-0.2,1.1-0.5,1.5c-0.3,0.3-0.8,0.5-1.5,0.5
		c-0.6,0-1.1-0.2-1.5-0.5c-0.3-0.3-0.5-0.8-0.5-1.5V50.2c0-0.6,0.2-1.1,0.5-1.5c0.3-0.3,0.8-0.5,1.5-0.5c1.3,0,2,0.7,2,2v0.8
		c0.8-0.9,1.8-1.7,2.9-2.2C39.7,48.2,41,47.9,42.3,47.9L42.3,47.9z M59.3,48c2,0,3.9,0.5,5.6,1.5c1.7,1,3,2.3,3.9,4
		c1,1.7,1.5,3.6,1.5,5.6v8.9c0,0.6-0.2,1.1-0.6,1.5c-0.4,0.4-0.9,0.6-1.5,0.6c-0.6,0-1.1-0.2-1.5-0.6c-0.4-0.4-0.6-0.9-0.6-1.5v-1.5
		c-0.9,1.1-2.1,2-3.4,2.7c-1.3,0.6-2.8,1-4.3,1c-1.9,0-3.6-0.5-5.2-1.4c-1.6-1-2.8-2.3-3.7-4c-0.9-1.7-1.3-3.6-1.3-5.6
		s0.5-3.9,1.4-5.6c1-1.7,2.3-3,4-4C55.4,48.5,57.2,48,59.3,48L59.3,48z M59.3,66.5c1.3,0,2.5-0.3,3.6-1c1.1-0.6,1.9-1.5,2.5-2.7
		c0.6-1.1,0.9-2.4,0.9-3.8c0-1.4-0.3-2.7-0.9-3.8c-0.6-1.1-1.5-2-2.5-2.7c-1.1-0.6-2.3-1-3.6-1c-1.3,0-2.5,0.3-3.6,1
		c-1.1,0.7-1.9,1.5-2.5,2.7c-0.6,1.1-0.9,2.4-0.9,3.8c0,1.4,0.3,2.7,0.9,3.8c0.6,1.1,1.5,2,2.5,2.7C56.7,66.2,57.9,66.5,59.3,66.5
		L59.3,66.5z M85.6,42.5c-1.5,0-2.7,0.5-3.6,1.5c-0.9,1-1.4,2.3-1.4,3.9V49h4.1c0.6,0,1,0.2,1.4,0.5c0.3,0.3,0.5,0.7,0.5,1.3
		c0,0.5-0.2,0.9-0.5,1.2c-0.3,0.3-0.8,0.5-1.4,0.5h-4.1v15.5c0,0.6-0.2,1.1-0.6,1.5c-0.4,0.4-0.9,0.6-1.6,0.6c-0.5,0-1-0.2-1.4-0.6
		c-0.4-0.4-0.6-0.9-0.6-1.5V52.4h-1.7c-0.6,0-1-0.2-1.4-0.5c-0.3-0.3-0.5-0.7-0.5-1.2c0-0.5,0.2-1,0.5-1.3c0.3-0.3,0.8-0.5,1.4-0.5
		h1.7v-0.7c0-1.9,0.4-3.5,1.1-5c0.8-1.4,1.8-2.5,3.2-3.3c1.4-0.8,2.9-1.2,4.7-1.2c0.6,0,1.1,0.2,1.5,0.5c0.4,0.3,0.6,0.8,0.6,1.3
		c0,0.5-0.2,1-0.6,1.3C86.7,42.3,86.2,42.5,85.6,42.5L85.6,42.5z M100.3,42.5c-1.5,0-2.7,0.5-3.6,1.5c-0.9,1-1.4,2.3-1.4,3.9V49h4.1
		c0.6,0,1,0.2,1.4,0.5c0.3,0.3,0.5,0.7,0.5,1.3c0,0.5-0.2,0.9-0.5,1.2c-0.3,0.3-0.8,0.5-1.4,0.5h-4.1v15.5c0,0.6-0.2,1.1-0.6,1.5
		c-0.4,0.4-0.9,0.6-1.6,0.6c-0.5,0-1-0.2-1.4-0.6c-0.4-0.4-0.6-0.9-0.6-1.5V52.4h-1.7c-0.6,0-1-0.2-1.4-0.5
		c-0.3-0.3-0.5-0.7-0.5-1.2c0-0.5,0.2-1,0.5-1.3c0.3-0.3,0.8-0.5,1.4-0.5h1.7v-0.7c0-1.9,0.4-3.5,1.1-5c0.8-1.4,1.8-2.5,3.2-3.3
		c1.4-0.8,2.9-1.2,4.7-1.2c0.6,0,1.1,0.2,1.5,0.5c0.4,0.3,0.6,0.8,0.6,1.3c0,0.5-0.2,1-0.6,1.3C101.3,42.3,100.8,42.5,100.3,42.5
		L100.3,42.5z M107.9,44.6c-0.7,0-1.3-0.3-1.9-0.8c-0.5-0.5-0.8-1.1-0.8-1.9s0.3-1.3,0.8-1.9s1.1-0.8,1.9-0.8s1.3,0.3,1.9,0.8
		s0.8,1.1,0.8,1.9s-0.3,1.3-0.8,1.9C109.2,44.4,108.6,44.6,107.9,44.6L107.9,44.6z M107.9,69.9c-0.6,0-1.1-0.2-1.5-0.6
		c-0.4-0.4-0.6-0.9-0.6-1.5V50.2c0-0.6,0.2-1.1,0.6-1.5c0.4-0.4,0.9-0.6,1.5-0.6c0.6,0,1.1,0.2,1.5,0.6c0.4,0.4,0.6,0.9,0.6,1.5
		v17.7c0,0.6-0.2,1.1-0.6,1.5C109,69.7,108.5,69.9,107.9,69.9L107.9,69.9z M126.8,66c0.5,0,0.9,0.2,1.2,0.6c0.3,0.4,0.5,0.8,0.5,1.4
		c0,0.6-0.2,1.1-0.7,1.4c-0.4,0.4-1,0.6-1.7,0.6h-0.7c-1.3,0-2.5-0.3-3.6-1c-1.1-0.7-1.9-1.6-2.5-2.8c-0.6-1.2-0.9-2.5-0.9-3.9v-9.8
		h-1.8c-0.6,0-1-0.2-1.4-0.5c-0.3-0.3-0.5-0.7-0.5-1.2c0-0.5,0.2-1,0.5-1.3c0.3-0.3,0.8-0.5,1.4-0.5h1.8v-5.7c0-0.6,0.2-1.1,0.6-1.4
		c0.4-0.4,0.8-0.6,1.4-0.6c0.6,0,1.1,0.2,1.4,0.6c0.4,0.4,0.6,0.8,0.6,1.4V49h3.4c0.6,0,1,0.2,1.4,0.5c0.3,0.3,0.5,0.7,0.5,1.3
		c0,0.5-0.2,0.9-0.5,1.2c-0.3,0.3-0.8,0.5-1.4,0.5h-3.4v9.8c0,1.1,0.3,2,0.9,2.7c0.6,0.7,1.3,1.1,2.1,1.1H126.8L126.8,66z
		 M135.9,44.6c-0.7,0-1.3-0.3-1.9-0.8c-0.5-0.5-0.8-1.1-0.8-1.9s0.3-1.3,0.8-1.9s1.1-0.8,1.9-0.8s1.3,0.3,1.9,0.8s0.8,1.1,0.8,1.9
		s-0.3,1.3-0.8,1.9C137.2,44.4,136.6,44.6,135.9,44.6L135.9,44.6z M135.9,69.9c-0.6,0-1.1-0.2-1.5-0.6c-0.4-0.4-0.6-0.9-0.6-1.5
		V50.2c0-0.6,0.2-1.1,0.6-1.5c0.4-0.4,0.9-0.6,1.5-0.6c0.6,0,1.1,0.2,1.5,0.6c0.4,0.4,0.6,0.9,0.6,1.5v17.7c0,0.6-0.2,1.1-0.6,1.5
		C137,69.7,136.5,69.9,135.9,69.9L135.9,69.9z"/>
</g>
<g class="st1">
	<line class="st2" x1="102.5" y1="24.9" x2="84.6" y2="5.7"/>
</g>
<g>
	<path class="st0" d="M102.5,25.9c-0.3,0-0.5-0.1-0.7-0.3L83.9,6.4c-0.4-0.4-0.4-1,0-1.4c0.4-0.4,1-0.4,1.4,0.1l17.8,19.1
		c0.4,0.4,0.4,1,0,1.4C102.9,25.8,102.7,25.9,102.5,25.9z"/>
</g>
<g>
	<path class="st0" d="M95,29.1c-3.1,0-6-1.3-8.1-3.6v0c-4.3-4.7-7.6-15.6-3-20.5c1.5-1.6,3.7-2.4,6.3-2.4c0,0,0,0,0,0
		c4.5,0,9.9,2.4,13,5.6c4.4,4.8,4.4,12.5,0,17.3C101,27.9,98.1,29.1,95,29.1z M88.4,24.2c1.8,1.9,4.2,3,6.7,3c2.5,0,4.9-1.1,6.7-3
		c3.7-4,3.7-10.5,0-14.5c-2.7-2.8-7.6-5-11.5-5c0,0,0,0,0,0c-1.5,0-3.5,0.3-4.8,1.8C81.7,10.3,84.6,20.1,88.4,24.2L88.4,24.2z"/>
</g>
<g>
	<path class="st0" d="M95.7,29.1c-0.1,0-0.3,0-0.4-0.1c-0.5-0.2-0.7-0.8-0.5-1.3c3-6.8-1.8-11.7-1.9-11.7c-0.4-0.4-0.4-1,0-1.4
		c0.4-0.4,1-0.4,1.4,0c0.1,0.1,5.9,5.9,2.3,14C96.4,28.9,96,29.1,95.7,29.1z"/>
</g>
<g>
	<path class="st0" d="M87.1,24.1l-1.5-1.3c7.1-8.3-1.2-16-1.6-16.3l-0.1-1.4L85.3,5C85.7,5.4,95.5,14.4,87.1,24.1z"/>
</g>
<g>
	<path class="st0" d="M101,19.7c-4.9,0-8.2-3.7-8.2-3.8c-0.4-0.4-0.3-1.1,0.1-1.4c0.4-0.4,1.1-0.3,1.4,0.1l0,0
		c0.2,0.2,4.6,5.2,10.7,2c0.5-0.3,1.1-0.1,1.3,0.4c0.3,0.5,0.1,1.1-0.4,1.3C104.2,19.4,102.5,19.7,101,19.7z"/>
</g>
<g>
	<path class="st0" d="M94,11.9c-0.2,0-0.4,0-0.6,0c-5.3-0.3-9.1-5-9.5-5.5l0.2-1.4l1.4,0.2c0.1,0.2,3.6,4.5,8.1,4.8
		c2.4,0.2,4.7-0.9,6.9-3.1l1.4,1.4C99.4,10.7,96.8,11.9,94,11.9z"/>
</g>
<g class="st1">
	<line class="st2" x1="102.5" y1="24.9" x2="106.1" y2="28.8"/>
</g>
<g>
	<path class="st0" d="M106.1,29.8c-0.3,0-0.5-0.1-0.7-0.3l-3.7-4c-0.4-0.4-0.4-1,0-1.4c0.4-0.4,1-0.4,1.4,0.1l3.7,4
		c0.4,0.4,0.4,1,0,1.4C106.6,29.7,106.4,29.8,106.1,29.8z"/>
</g>
<g>
	<rect x="88.8" y="3.8" transform="matrix(0.7307 -0.6827 0.6827 0.7307 16.7674 63.974)" class="st0" width="1.4" height="13.9"/>
</g>
<g class="st1">
	<line class="st3" x1="110.8" y1="20.8" x2="124" y2="8.5"/>
</g>
<g>
	<path class="st0" d="M110.8,21.8c-0.3,0-0.5-0.1-0.7-0.3c-0.4-0.4-0.4-1,0-1.4l13.2-12.3c0.4-0.4,1-0.4,1.4,0.1
		c0.4,0.4,0.4,1,0,1.4l-13.2,12.3C111.3,21.7,111,21.8,110.8,21.8z"/>
</g>
<g>
	<path class="st0" d="M116.3,23.9c-2.2,0-4.5-0.8-6.2-2.4c-1.7-1.6-2.6-3.6-2.6-5.9s0.9-4.3,2.6-5.9c3.3-3.1,11.1-5.4,14.6-2.1
		c1.2,1.1,1.8,2.7,1.8,4.6c0,3.2-1.7,7-4,9.2C120.8,23.1,118.5,23.9,116.3,23.9z M119.9,8.1c-3,0-6.6,1.5-8.5,3.2
		c-1.3,1.2-2,2.7-2,4.4s0.7,3.2,2,4.4c2.7,2.5,7,2.5,9.6,0c1.9-1.8,3.4-5.1,3.4-7.7c0-1.4-0.4-2.4-1.1-3.1
		C122.5,8.4,121.3,8.1,119.9,8.1z"/>
</g>
<g class="st1">
	<path class="st3" d="M117.4,14.6c0,0-3.7,3.8-8.9,1.5"/>
</g>
<g>
	<path class="st0" d="M111.9,17.8c-1.2,0-2.4-0.2-3.8-0.8c-0.5-0.2-0.7-0.8-0.5-1.3c0.2-0.5,0.8-0.7,1.3-0.5c4.5,2,7.7-1.2,7.8-1.2
		c0.4-0.4,1-0.4,1.4,0c0.4,0.4,0.4,1,0,1.4C117.1,16.4,114.8,17.8,111.9,17.8z"/>
</g>
<g class="st1">
	<path class="st4" d="M124,8.5c0,0-5.9,6.7-12.3,1.2"/>
</g>
<g>
	<path class="st0" d="M117.1,12.8c-1.8,0-3.9-0.6-6-2.4l1.3-1.5c5.4,4.7,10.3-0.5,10.9-1.1l1.4-0.1l0.1,1.4
		C124.6,9.3,121.4,12.8,117.1,12.8z"/>
</g>
<g class="st1">
	<path class="st3" d="M117.4,14.6c0,0-4.1,3.4-1.6,8.3"/>
</g>
<g>
	<path class="st0" d="M115.8,23.9c-0.4,0-0.7-0.2-0.9-0.5c-2.3-4.4,0.2-8.1,1.8-9.5c0.4-0.4,1.1-0.3,1.4,0.1c0.4,0.4,0.3,1-0.1,1.4
		l0,0c-0.1,0.1-3.4,3-1.3,7.1c0.3,0.5,0.1,1.1-0.4,1.3C116.2,23.9,116,23.9,115.8,23.9z"/>
</g>
<g class="st1">
	<path class="st4" d="M124,8.5c0,0-7.2,5.5-1.3,11.4"/>
</g>
<g>
	<path class="st0" d="M122.1,20.6c-1.9-1.9-2.7-3.9-2.6-6.1c0.2-3.8,3.6-6.5,4-6.8l0.6,0.8l0.8-0.6l-0.2,1.4c-0.1,0.1-3,2.4-3.2,5.4
		c-0.1,1.6,0.6,3.1,2,4.5L122.1,20.6z"/>
</g>
<g>
	<line class="st5" x1="110.8" y1="20.8" x2="108.1" y2="23.3"/>
</g>
<g>
	<path class="st0" d="M108.1,24.3c-0.3,0-0.5-0.1-0.7-0.3c-0.4-0.4-0.4-1,0-1.4l2.7-2.6c0.4-0.4,1-0.4,1.4,0.1c0.4,0.4,0.4,1,0,1.4
		l-2.7,2.6C108.5,24.3,108.3,24.3,108.1,24.3z"/>
</g>
<g>
	<rect x="113.1" y="11.8" transform="matrix(0.728 -0.6855 0.6855 0.728 23.7213 85.359)" class="st0" width="12.6" height="2"/>
</g>
<g class="st1">
	<rect x="-234" y="-182" class="st4" width="612" height="445"/>
</g>
<g class="st1">
	<rect x="-234" y="-182" class="st4" width="612" height="445"/>
</g>
</svg>
